<svg width="53" height="25" viewBox="0 0 53 25" fill="none" xmlns="http://www.w3.org/2000/svg">
<path d="M0.191406 12.2243H3.19588C4.65419 12.2243 6.32334 12.0591 7.5181 11.4314C9.41566 10.4567 10.628 8.34226 10.628 6.14519C10.628 4.22895 9.71435 2.41182 8.48445 1.42066C7.72894 0.809447 6.34091 0 3.14317 0H0.191406V12.2243ZM2.5985 2.11447H3.05532C4.56634 2.11447 5.83138 2.27967 6.83287 3.13867C7.67623 3.83248 8.2209 4.9558 8.2209 6.14519C8.2209 7.45022 7.55324 8.85436 6.27063 9.51513C5.25157 10.0272 4.40821 10.1098 3.10803 10.1098H2.5985V2.11447Z" fill="white"/>
<path d="M17.8255 12.5216C20.5313 12.5216 22.9911 10.6219 22.9911 7.61541C22.9911 4.80712 20.584 2.74221 17.8255 2.74221C15.0319 2.74221 12.6248 4.8732 12.6248 7.64845C12.6248 10.275 14.9265 12.5216 17.8255 12.5216ZM17.8255 10.5063C16.3497 10.5063 14.9616 9.38298 14.9616 7.64845C14.9616 5.73221 16.6132 4.75757 17.8255 4.75757C19.2838 4.75757 20.6543 5.99652 20.6543 7.66497C20.6543 9.11867 19.5298 10.5063 17.8255 10.5063Z" fill="white"/>
<path d="M34.9932 3.05608H32.8497V4.21243H32.8146C32.7443 4.08027 31.5671 2.74221 29.5817 2.74221C26.8759 2.74221 24.6972 4.77408 24.6972 7.58237C24.6972 10.6384 26.9286 12.5216 29.4411 12.5216C30.671 12.5216 32.1118 11.9104 32.8497 11.0845V12.2243H34.9932V3.05608ZM32.7794 7.61541C32.7794 9.3169 31.5495 10.5063 29.9331 10.5063C28.2639 10.5063 27.034 9.2343 27.034 7.68149C27.034 6.31038 28.0179 4.75757 29.9331 4.75757C31.3211 4.75757 32.7794 5.71569 32.7794 7.61541Z" fill="white"/>
<path d="M37.7273 12.2243H40.0641V7.07027C40.0641 6.52513 40.0641 4.9558 42.1901 4.8732V2.74221H41.9968C40.7845 2.74221 40.3452 3.27083 39.906 3.86552H39.8709V3.05608H37.7273V12.2243Z" fill="white"/>
<path d="M44.558 12.2243H46.8948V5.00536H48.3004V3.05608H46.8948V0H44.558V3.05608H43.4159V5.00536H44.558V12.2243Z" fill="white"/>
<path d="M50.3958 12.2243H52.7326V10.0272H50.3958V12.2243Z" fill="white"/>
<path d="M0 22.3283C0.0766691 23.797 1.39921 24.3737 2.30966 24.3737C3.42136 24.3737 4.60973 23.6889 4.60973 22.2472C4.60973 20.7965 3.33511 20.373 2.7505 20.1928C2.03173 19.9675 1.57172 19.8414 1.57172 19.2647C1.57172 18.8682 1.88798 18.5889 2.30007 18.5889C2.65467 18.5889 3.03801 18.7421 3.09551 19.3368H4.43722C4.37014 17.9762 3.1626 17.4355 2.33841 17.4355C1.14045 17.4355 0.258758 18.2735 0.258758 19.3368C0.258758 20.7424 1.39921 21.0578 1.94548 21.256C2.82717 21.5714 3.29677 21.6975 3.29677 22.3823C3.29677 22.8869 2.83676 23.2203 2.31924 23.2203C1.91673 23.2203 1.44713 22.9951 1.38004 22.3283H0Z" fill="white"/>
<path d="M10.2404 24.2385H14.0547V23.0852H11.5534V21.5083H13.9493V20.355H11.5534V18.7241H14.0547V17.5707H10.2404V24.2385Z" fill="white"/>
<path d="M20.1167 24.2385H23.5955V23.0852H21.4296V17.5707H20.1167V24.2385Z" fill="white"/>
<path d="M29.1294 24.2385H32.6083V23.0852H30.4423V17.5707H29.1294V24.2385Z" fill="white"/>
<path d="M38.0367 24.2385H41.851V23.0852H39.3497V21.5083H41.7456V20.355H39.3497V18.7241H41.851V17.5707H38.0367V24.2385Z" fill="white"/>
<path d="M47.8363 24.2385H49.1492V21.6885H49.1684L51.0468 24.2385H52.6377L50.7114 21.7786C51.066 21.6975 51.4685 21.6074 51.8902 21.229C52.3981 20.7694 52.5706 20.0756 52.5706 19.6341C52.5706 18.8682 52.1393 18.3276 51.7368 18.0212C51.3343 17.7149 50.8264 17.5707 50.0118 17.5707H47.8363V24.2385ZM49.1492 18.7241H49.9926C51.018 18.7241 51.2576 19.3638 51.2576 19.7332C51.2576 20.0846 51.0755 20.7604 49.9926 20.7604H49.1492V18.7241Z" fill="white"/>
</svg>
