<svg width="16" height="17" viewBox="0 0 16 17" fill="none" xmlns="http://www.w3.org/2000/svg">
<path d="M9.50094 16.4911H6.49956C6.31151 16.4911 6.12909 16.4269 5.98257 16.309C5.83605 16.1911 5.73422 16.0267 5.69397 15.843L5.35838 14.2895C4.9107 14.0934 4.4862 13.8481 4.09269 13.5581L2.57799 14.0405C2.3987 14.0977 2.20525 14.0918 2.02976 14.0239C1.85427 13.9559 1.7073 13.83 1.61326 13.667L0.109271 11.0688C0.016216 10.9057 -0.0187144 10.7158 0.0101943 10.5302C0.0391031 10.3446 0.130139 10.1743 0.26841 10.0472L1.4434 8.97527C1.38997 8.4897 1.38997 7.99973 1.4434 7.51416L0.26841 6.44471C0.129944 6.31755 0.0387834 6.14711 0.00986994 5.96135C-0.0190435 5.77558 0.0160049 5.5855 0.109271 5.42227L1.60996 2.82245C1.704 2.65945 1.85097 2.53352 2.02646 2.46557C2.20195 2.39763 2.3954 2.39175 2.57469 2.44893L4.08939 2.93129C4.29058 2.78287 4.50002 2.64434 4.71605 2.51901C4.92467 2.40193 5.13905 2.29556 5.35838 2.20074L5.6948 0.648924C5.73485 0.465212 5.83648 0.300705 5.98285 0.182679C6.12922 0.0646532 6.31154 0.000197865 6.49956 0H9.50094C9.68897 0.000197865 9.87128 0.0646532 10.0177 0.182679C10.164 0.300705 10.2657 0.465212 10.3057 0.648924L10.6454 2.20156C10.8763 2.3038 11.1022 2.41842 11.3207 2.54622C11.5244 2.66413 11.7215 2.79359 11.9111 2.93294L13.4266 2.45057C13.6058 2.39361 13.7991 2.39959 13.9744 2.46753C14.1497 2.53546 14.2965 2.66127 14.3905 2.8241L15.8912 5.42392C16.0825 5.75951 16.0166 6.18416 15.7321 6.44554L14.5571 7.51746C14.6105 8.00303 14.6105 8.493 14.5571 8.97857L15.7321 10.0505C16.0166 10.3127 16.0825 10.7365 15.8912 11.0721L14.3905 13.6719C14.2965 13.8349 14.1495 13.9609 13.974 14.0288C13.7986 14.0968 13.6051 14.1026 13.4258 14.0455L11.9111 13.5631C11.5179 13.8528 11.0937 14.0978 10.6462 14.2936L10.3057 15.843C10.2655 16.0265 10.1638 16.1909 10.0174 16.3087C9.87108 16.4266 9.68885 16.4909 9.50094 16.4911ZM7.99695 4.94732C7.12221 4.94732 6.2833 5.29481 5.66476 5.91335C5.04623 6.53189 4.69874 7.3708 4.69874 8.24554C4.69874 9.12028 5.04623 9.9592 5.66476 10.5777C6.2833 11.1963 7.12221 11.5438 7.99695 11.5438C8.8717 11.5438 9.71061 11.1963 10.3291 10.5777C10.9477 9.9592 11.2952 9.12028 11.2952 8.24554C11.2952 7.3708 10.9477 6.53189 10.3291 5.91335C9.71061 5.29481 8.8717 4.94732 7.99695 4.94732Z" fill="white"/>
</svg>