<svg width="11" height="15" viewBox="0 0 11 15" fill="none" xmlns="http://www.w3.org/2000/svg">
<path d="M4.93472 14.7001C0.772444 8.52633 0 7.8932 0 5.62505C0 2.51815 2.46217 0 5.5 0C8.53783 0 11 2.51815 11 5.62505C11 7.8932 10.2276 8.52508 6.06528 14.6976C6.00207 14.7907 5.9178 14.8668 5.81966 14.9195C5.72151 14.9721 5.61238 14.9998 5.50155 15C5.39073 15.0002 5.28148 14.9731 5.18311 14.9209C5.08474 14.8687 5.00016 14.793 4.93656 14.7001L4.93533 14.6976L4.93472 14.7001ZM5.5 7.96882C6.10779 7.96882 6.69068 7.72189 7.12045 7.28235C7.55022 6.84281 7.79167 6.24666 7.79167 5.62505C7.79167 5.00344 7.55022 4.4073 7.12045 3.96775C6.69068 3.52821 6.10779 3.28128 5.5 3.28128C4.89221 3.28128 4.30932 3.52821 3.87955 3.96775C3.44978 4.4073 3.20833 5.00344 3.20833 5.62505C3.20833 6.24666 3.44978 6.84281 3.87955 7.28235C4.30932 7.72189 4.89221 7.96882 5.5 7.96882Z" fill="#6A707E"/>
</svg>
