<svg width="14" height="14" viewBox="0 0 14 14" fill="none" xmlns="http://www.w3.org/2000/svg">
<path d="M13.7788 12.708L10.4018 9.331C11.155 8.35256 11.6026 7.12911 11.6026 5.80129C11.6026 2.60276 8.99982 6.9723e-09 5.80129 6.9723e-09C2.60276 -0.000155549 0 2.6026 0 5.80113C0 8.99967 2.60276 11.6024 5.80129 11.6024C7.12756 11.6024 8.35411 11.1547 9.33256 10.4017L12.7095 13.7786C12.8562 13.9253 13.0497 13.9994 13.2434 13.9994C13.4369 13.9994 13.6306 13.9253 13.7788 13.7786C14.0737 13.4823 14.0737 13.0044 13.7788 12.708ZM1.51231 5.80113C1.51231 3.43591 3.43607 1.51216 5.80129 1.51216C8.16651 1.51216 10.0903 3.43576 10.0903 5.80113C10.0903 8.16651 8.16651 10.0901 5.80129 10.0901C3.43607 10.0901 1.51231 8.16651 1.51231 5.80113Z" fill="#B79B6C"/>
</svg>
