<svg width="14" height="10" viewBox="0 0 14 10" fill="none" xmlns="http://www.w3.org/2000/svg">
<path d="M14 8.63636C14 9.40909 13.4313 10 12.6875 10H1.3125C0.56875 10 0 9.40909 0 8.63636V1.36364C0 0.590909 0.56875 0 1.3125 0H12.6875C13.4313 0 14 0.590909 14 1.36364V8.63636ZM6.125 8.18182C6.125 6.18182 5.1625 4.54545 3.9375 4.54545C4.68125 4.54545 5.25 3.95455 5.25 3.18182C5.25 2.40909 4.68125 1.81818 3.9375 1.81818C3.19375 1.81818 2.625 2.40909 2.625 3.18182C2.625 3.95455 3.19375 4.54545 3.9375 4.54545C2.7125 4.54545 1.75 6.18182 1.75 8.18182H6.125ZM12.25 7.27273H7.875V8.18182H12.25V7.27273ZM12.25 4.54545H7.875V5.45455H12.25V4.54545ZM12.25 1.81818H7.875V2.72727H12.25V1.81818Z" fill="#6A707E"/>
</svg>
