<svg width="50" height="50" viewBox="0 0 50 50" fill="none" xmlns="http://www.w3.org/2000/svg">
<circle cx="25" cy="25" r="25" fill="#FFFBF4"/>
<circle cx="25.001" cy="25" r="21" fill="#FBF2E4"/>
<path d="M34.6084 24.6621C34.6118 25.982 34.3035 27.284 33.7084 28.4621C33.0028 29.8739 31.9181 31.0613 30.5758 31.8914C29.2335 32.7215 27.6866 33.1615 26.1084 33.1621C24.7885 33.1656 23.4865 32.8572 22.3084 32.2621L16.6084 34.1621L18.5084 28.4621C17.9133 27.284 17.605 25.982 17.6084 24.6621C17.609 23.0839 18.049 21.537 18.8791 20.1947C19.7092 18.8524 20.8967 17.7677 22.3084 17.0621C23.4865 16.4671 24.7885 16.1587 26.1084 16.1621H26.6084C28.6927 16.2771 30.6614 17.1569 32.1375 18.633C33.6136 20.1091 34.4934 22.0778 34.6084 24.1621V24.6621Z" stroke="#B79B6C" stroke-width="2" stroke-linecap="round" stroke-linejoin="round"/>
</svg>
