<svg width="50" height="50" viewBox="0 0 50 50" fill="none" xmlns="http://www.w3.org/2000/svg">
<circle cx="25" cy="25" r="25" fill="#FFFBF4"/>
<circle cx="25" cy="25" r="21" fill="#FBF2E4"/>
<path d="M29.6562 16.9834H31.7656C32.3251 16.9834 32.8616 17.1923 33.2572 17.5643C33.6528 17.9362 33.875 18.4406 33.875 18.9666V32.8493C33.875 33.3753 33.6528 33.8797 33.2572 34.2516C32.8616 34.6236 32.3251 34.8325 31.7656 34.8325H19.1094C18.5499 34.8325 18.0134 34.6236 17.6178 34.2516C17.2222 33.8797 17 33.3753 17 32.8493V18.9666C17 18.4406 17.2222 17.9362 17.6178 17.5643C18.0134 17.1923 18.5499 16.9834 19.1094 16.9834H21.2188" stroke="#B79B6C" stroke-width="2" stroke-linecap="round" stroke-linejoin="round"/>
<path d="M28.6016 15H22.2734C21.6909 15 21.2188 15.444 21.2188 15.9916V17.9749C21.2188 18.5225 21.6909 18.9665 22.2734 18.9665H28.6016C29.1841 18.9665 29.6562 18.5225 29.6562 17.9749V15.9916C29.6562 15.444 29.1841 15 28.6016 15Z" stroke="#B79B6C" stroke-width="2" stroke-linecap="round" stroke-linejoin="round"/>
</svg>
