<svg width="13" height="17" viewBox="0 0 13 17" fill="none" xmlns="http://www.w3.org/2000/svg">
<path fill-rule="evenodd" clip-rule="evenodd" d="M0.728318 0.666992H7.03019V4.93724C7.03019 5.3359 7.35601 5.66172 7.75467 5.66172H12.2012V15.9425C12.2012 16.3412 11.8754 16.667 11.4768 16.667H0.724485C0.325827 16.667 0 16.3412 0 15.9425V1.39148C0 0.992819 0.325827 0.666992 0.724485 0.666992H0.728318ZM4.22808 11.2698C3.95975 11.4001 3.61092 11.4653 3.1816 11.4653C2.62578 11.4653 2.18495 11.3004 1.85913 10.9669C1.5333 10.6335 1.3723 10.1926 1.3723 9.64064C1.3723 9.05798 1.55247 8.58266 1.91663 8.21467C2.28079 7.84284 2.74844 7.65885 3.32343 7.65885C3.68376 7.65885 3.98658 7.70485 4.22808 7.80068V8.55966C3.97892 8.414 3.69526 8.34117 3.38093 8.34117C3.0206 8.34117 2.73311 8.45616 2.51845 8.68616C2.30379 8.91615 2.19645 9.21515 2.19645 9.58697C2.19645 9.9473 2.29995 10.2386 2.50311 10.461C2.70628 10.6795 2.9861 10.7906 3.3311 10.7906C3.66076 10.7906 3.95975 10.7101 4.22808 10.553V11.2736V11.2698ZM4.71107 10.4763C5.00623 10.7216 5.34355 10.8443 5.72305 10.8443C5.93771 10.8443 6.09871 10.8059 6.20604 10.7331C6.31337 10.6603 6.36703 10.5645 6.36703 10.4495C6.36703 10.3498 6.32487 10.254 6.24054 10.1658C6.1562 10.0776 5.93004 9.95497 5.56205 9.80547C4.98706 9.56014 4.69957 9.20748 4.69957 8.73982C4.69957 8.39866 4.8299 8.13034 5.09056 7.94251C5.35122 7.75084 5.69621 7.65885 6.12554 7.65885C6.48586 7.65885 6.78869 7.70485 7.03019 7.80068V8.53666C6.78102 8.368 6.49353 8.28367 6.16387 8.28367C5.96838 8.28367 5.81504 8.31817 5.70005 8.391C5.58505 8.46 5.52755 8.55583 5.52755 8.67466C5.52755 8.77049 5.56588 8.85865 5.64638 8.93532C5.72688 9.01582 5.92238 9.12315 6.23287 9.26115C6.59703 9.41831 6.85002 9.58314 6.98802 9.75947C7.12602 9.93197 7.19502 10.139 7.19502 10.3805C7.19502 10.7331 7.06852 11.0053 6.81936 11.1893C6.5702 11.3733 6.2137 11.4691 5.75371 11.4691C5.33206 11.4691 4.98706 11.4001 4.7149 11.2659V10.4801L4.71107 10.4763ZM10.8366 7.72018L9.5563 11.4039H8.67082L7.40968 7.72018H8.25683L9.05414 10.323C9.09248 10.4495 9.11931 10.5721 9.12698 10.6871H9.14231C9.15381 10.5721 9.18064 10.4456 9.22281 10.3153L10.0201 7.72401H10.8404L10.8366 7.72018ZM12.2051 5.3014H8.07283C7.71634 5.3014 7.42501 5.01007 7.42501 4.65358V0.666992L12.2051 5.3014Z" fill="#171717"/>
</svg>
