<svg width="50" height="40" viewBox="0 0 50 40" fill="none" xmlns="http://www.w3.org/2000/svg">
<path d="M48.9678 7.63884C48.6978 7.27503 48.2948 7.0355 47.8478 6.97136L43.3118 6.3159L42.4848 1.81186C42.3148 0.883786 41.4238 0.270419 40.5018 0.441801L23.8898 3.50764L10.9678 1.63847C10.0348 1.50718 9.17283 2.15161 9.03783 3.08569L8.57083 6.33193L1.39583 7.65688C0.950829 7.73907 0.556829 7.99464 0.299829 8.36747C0.0438294 8.7393 -0.054171 9.19932 0.028829 9.64431L5.17683 37.6778C5.25883 38.1218 5.51483 38.5177 5.88583 38.7743C6.17283 38.9717 6.50983 39.0759 6.85283 39.0759C6.95683 39.0759 7.05983 39.0659 7.16183 39.0469L30.0158 34.8305L43.5558 36.7898C43.6388 36.7999 43.7208 36.8079 43.8008 36.8079C44.6338 36.8079 45.3628 36.1935 45.4858 35.3436L45.9838 31.8849L46.2678 31.8318C47.1938 31.6614 47.8048 30.7704 47.6348 29.8433L46.8728 25.7011L49.2908 8.90667C49.3548 8.45667 49.2398 8.00165 48.9678 7.63884ZM44.9428 15.1927L43.4198 25.7673L42.9608 28.9694L42.4468 32.5363L42.3548 33.1647L40.4998 32.8962L29.9488 31.3718L8.84883 28.3199L11.5938 9.24843L12.1068 5.67948L12.1668 5.26255L13.4038 5.44095L23.9548 6.96534L40.4048 9.34565L43.9648 9.85879L45.6748 10.1073L44.9428 15.1927ZM39.4428 4.10797L39.7538 5.80075L34.4398 5.03103L39.4428 4.10797ZM3.68783 10.7067L8.05683 9.89888L6.07283 23.6856L3.68783 10.7067ZM8.21983 35.3807L7.52283 31.5792L19.4638 33.3061L8.21983 35.3807Z" fill="#6A707E"/>
<path d="M19.688 17.2643C21.4962 17.2643 22.962 15.7952 22.962 13.983C22.962 12.1708 21.4962 10.7017 19.688 10.7017C17.8799 10.7017 16.4141 12.1708 16.4141 13.983C16.4141 15.7952 17.8799 17.2643 19.688 17.2643Z" fill="#6A707E"/>
<path d="M38.3891 19.5192L35.2831 22.7474L31.3681 15.0103L23.9261 23.5772C23.9261 23.5772 14.1441 19.6305 11.4531 26.4747L36.7041 30.1257L40.4371 30.6639L40.2201 29.4753L38.3891 19.5192Z" fill="#6A707E"/>
</svg>
