<svg width="20" height="18" viewBox="0 0 20 18" fill="none" xmlns="http://www.w3.org/2000/svg">
<path d="M6.38281 17.8491H2.16406C1.00391 17.8491 0.0546875 16.9567 0.0546875 15.8659V1.98324C0.0546875 0.892456 1.00391 0 2.16406 0H6.38281C7.54297 0 8.49219 0.892456 8.49219 1.98324V15.8659C8.49219 16.9567 7.54297 17.8491 6.38281 17.8491ZM12.7109 17.8491H16.9297C18.0898 17.8491 19.0391 16.9567 19.0391 15.8659V10.9078C19.0391 9.81702 18.0898 8.92456 16.9297 8.92456H12.7109C11.5508 8.92456 10.6016 9.81702 10.6016 10.9078V15.8659C10.6016 16.9567 11.5508 17.8491 12.7109 17.8491ZM19.0391 4.95809V1.98324C19.0391 0.892456 18.0898 0 16.9297 0H12.7109C11.5508 0 10.6016 0.892456 10.6016 1.98324V4.95809C10.6016 6.04887 11.5508 6.94132 12.7109 6.94132H16.9297C18.0898 6.94132 19.0391 6.04887 19.0391 4.95809Z" fill="white"/>
</svg>
