<svg width="16" height="19" viewBox="0 0 16 19" fill="none" xmlns="http://www.w3.org/2000/svg">
<path d="M14.7905 9.58672C14.1264 8.81123 13.8246 8.1392 13.8246 6.99747V6.60927C13.8246 5.12145 13.4822 4.16284 12.7377 3.20423C11.5902 1.7155 9.65853 0.818237 7.76748 0.818237H7.68707C5.83577 0.818237 3.9646 1.6743 2.79727 3.1026C2.01212 4.08044 1.62993 5.08025 1.62993 6.60927V6.99747C1.62993 8.1392 1.34804 8.81123 0.66408 9.58672C0.160825 10.158 0 10.8923 0 11.6871C0 12.4827 0.261115 13.2362 0.78515 13.8487C1.46911 14.583 2.43496 15.0518 3.42159 15.1333C4.85004 15.2963 6.27849 15.3576 7.72772 15.3576C9.17605 15.3576 10.6045 15.2551 12.0339 15.1333C13.0196 15.0518 13.9854 14.583 14.6694 13.8487C15.1925 13.2362 15.4545 12.4827 15.4545 11.6871C15.4545 10.8923 15.2937 10.158 14.7905 9.58672" fill="#24262B"/>
<path d="M9.55324 16.4804C9.09877 16.3833 6.32951 16.3833 5.87505 16.4804C5.48654 16.5701 5.06641 16.7789 5.06641 17.2366C5.08899 17.6734 5.34469 18.0588 5.69886 18.3033L5.69796 18.3042C6.15604 18.6613 6.69363 18.8884 7.25652 18.9698C7.55648 19.011 7.86187 19.0092 8.17268 18.9698C8.73466 18.8884 9.27225 18.6613 9.73033 18.3042L9.72942 18.3033C10.0836 18.0588 10.3393 17.6734 10.3619 17.2366C10.3619 16.7789 9.94175 16.5701 9.55324 16.4804Z" fill="#24262B"/>
</svg>
