<svg width="19" height="22" viewBox="0 0 19 22" fill="none" xmlns="http://www.w3.org/2000/svg">
<path d="M13.6562 2.9834H15.7656C16.3251 2.9834 16.8616 3.19235 17.2572 3.56427C17.6528 3.9362 17.875 4.44065 17.875 4.96663V18.8493C17.875 19.3753 17.6528 19.8797 17.2572 20.2516C16.8616 20.6236 16.3251 20.8325 15.7656 20.8325H3.10938C2.54993 20.8325 2.01341 20.6236 1.61782 20.2516C1.22224 19.8797 1 19.3753 1 18.8493V4.96663C1 4.44065 1.22224 3.9362 1.61782 3.56427C2.01341 3.19235 2.54993 2.9834 3.10938 2.9834H5.21875" stroke="white" stroke-width="2" stroke-linecap="round" stroke-linejoin="round"/>
<path d="M12.6016 1H6.27344C5.69095 1 5.21875 1.44396 5.21875 1.99162V3.97485C5.21875 4.52251 5.69095 4.96647 6.27344 4.96647H12.6016C13.1841 4.96647 13.6562 4.52251 13.6562 3.97485V1.99162C13.6562 1.44396 13.1841 1 12.6016 1Z" stroke="white" stroke-width="2" stroke-linecap="round" stroke-linejoin="round"/>
</svg>
