<svg width="21" height="22" viewBox="0 0 21 22" fill="none" xmlns="http://www.w3.org/2000/svg">
<path d="M4.16406 1L1 4.96647V18.8491C1 19.3751 1.22224 19.8796 1.61782 20.2515C2.01341 20.6234 2.54993 20.8324 3.10938 20.8324H17.875C18.4344 20.8324 18.971 20.6234 19.3666 20.2515C19.7621 19.8796 19.9844 19.3751 19.9844 18.8491V4.96647L16.8203 1H4.16406Z" stroke="white" stroke-width="2" stroke-linecap="round" stroke-linejoin="round"/>
<path d="M1 4.9668H19.9844" stroke="white" stroke-width="2" stroke-linecap="round" stroke-linejoin="round"/>
<path d="M14.7109 8.93262C14.7109 9.98459 14.2665 10.9935 13.4753 11.7373C12.6841 12.4812 11.6111 12.8991 10.4922 12.8991C9.37331 12.8991 8.30025 12.4812 7.50908 11.7373C6.71791 10.9935 6.27344 9.98459 6.27344 8.93262" stroke="white" stroke-width="2" stroke-linecap="round" stroke-linejoin="round"/>
</svg>
