<svg width="24" height="20" viewBox="0 0 24 20" fill="none" xmlns="http://www.w3.org/2000/svg">
<path d="M19.9844 4.96631H3.10938C1.9444 4.96631 1 5.85423 1 6.94954V16.8657C1 17.961 1.9444 18.849 3.10938 18.849H19.9844C21.1494 18.849 22.0938 17.961 22.0938 16.8657V6.94954C22.0938 5.85423 21.1494 4.96631 19.9844 4.96631Z" stroke="white" stroke-width="2" stroke-linecap="round" stroke-linejoin="round"/>
<path d="M15.7656 18.8491V2.98324C15.7656 2.45725 15.5434 1.9528 15.1478 1.58088C14.7522 1.20895 14.2157 1 13.6562 1H9.4375C8.87806 1 8.34153 1.20895 7.94595 1.58088C7.55036 1.9528 7.32813 2.45725 7.32812 2.98324V18.8491" stroke="white" stroke-width="2" stroke-linecap="round" stroke-linejoin="round"/>
</svg>
