<svg width="16" height="11" viewBox="0 0 16 11" fill="none" xmlns="http://www.w3.org/2000/svg">
<path d="M0.909479 10.9137H10.9137C11.414 10.9137 11.8232 10.5045 11.8232 10.0043C11.8232 9.50405 11.414 9.09478 10.9137 9.09478H0.909479C0.409265 9.09478 0 9.50405 0 10.0043C0 10.5045 0.409265 10.9137 0.909479 10.9137ZM0.909479 6.36635H8.18531C8.68552 6.36635 9.09479 5.95708 9.09479 5.45687C9.09479 4.95666 8.68552 4.54739 8.18531 4.54739H0.909479C0.409265 4.54739 0 4.95666 0 5.45687C0 5.95708 0.409265 6.36635 0.909479 6.36635ZM0 0.909478C0 1.40969 0.409265 1.81896 0.909479 1.81896H10.9137C11.414 1.81896 11.8232 1.40969 11.8232 0.909478C11.8232 0.409265 11.414 0 10.9137 0H0.909479C0.409265 0 0 0.409265 0 0.909478ZM15.734 8.07617L13.1147 5.45687L15.734 2.83757C16.0887 2.48288 16.0887 1.9099 15.734 1.55521C15.3793 1.20051 14.8063 1.20051 14.4516 1.55521L11.1866 4.82024C10.8319 5.17493 10.8319 5.7479 11.1866 6.1026L14.4516 9.36763C14.8063 9.72232 15.3793 9.72232 15.734 9.36763C16.0796 9.01293 16.0887 8.43087 15.734 8.07617Z" fill="white"/>
</svg>
